<mxfile host="app.diagrams.net" modified="2022-01-17T08:18:38.181Z" agent="5.0 (Macintosh; Intel Mac OS X 10_15_7) AppleWebKit/537.36 (KHTML, like Gecko) Chrome/97.0.4692.71 Safari/537.36" etag="4opvj76dLv2W2Nc67lXo" version="14.4.9" type="github">
  <diagram id="uSX-9S-eXGz2k6nIvwEQ" name="第 1 页">
    <mxGraphModel dx="946" dy="589" grid="1" gridSize="10" guides="1" tooltips="1" connect="1" arrows="1" fold="1" page="1" pageScale="1" pageWidth="850" pageHeight="1100" math="0" shadow="0">
      <root>
        <mxCell id="0" />
        <mxCell id="1" parent="0" />
        <mxCell id="P-fnGor--EmOhXwZXgAq-38" value="" style="group" vertex="1" connectable="0" parent="1">
          <mxGeometry x="130" y="130" width="180" height="310" as="geometry" />
        </mxCell>
        <mxCell id="P-fnGor--EmOhXwZXgAq-15" value="行业研报原数据" style="shape=table;startSize=30;container=1;collapsible=1;childLayout=tableLayout;fixedRows=1;rowLines=0;fontStyle=1;align=center;resizeLast=1;" vertex="1" parent="P-fnGor--EmOhXwZXgAq-38">
          <mxGeometry width="180" height="310" as="geometry" />
        </mxCell>
        <mxCell id="P-fnGor--EmOhXwZXgAq-16" value="" style="shape=partialRectangle;collapsible=0;dropTarget=0;pointerEvents=0;fillColor=none;top=0;left=0;bottom=1;right=0;points=[[0,0.5],[1,0.5]];portConstraint=eastwest;" vertex="1" parent="P-fnGor--EmOhXwZXgAq-15">
          <mxGeometry y="30" width="180" height="30" as="geometry" />
        </mxCell>
        <mxCell id="P-fnGor--EmOhXwZXgAq-17" value="PK" style="shape=partialRectangle;connectable=0;fillColor=none;top=0;left=0;bottom=0;right=0;fontStyle=1;overflow=hidden;" vertex="1" parent="P-fnGor--EmOhXwZXgAq-16">
          <mxGeometry width="30" height="30" as="geometry" />
        </mxCell>
        <mxCell id="P-fnGor--EmOhXwZXgAq-18" value="行业研报ID" style="shape=partialRectangle;connectable=0;fillColor=none;top=0;left=0;bottom=0;right=0;align=left;spacingLeft=6;fontStyle=5;overflow=hidden;" vertex="1" parent="P-fnGor--EmOhXwZXgAq-16">
          <mxGeometry x="30" width="150" height="30" as="geometry" />
        </mxCell>
        <mxCell id="P-fnGor--EmOhXwZXgAq-19" value="" style="shape=partialRectangle;collapsible=0;dropTarget=0;pointerEvents=0;fillColor=none;top=0;left=0;bottom=0;right=0;points=[[0,0.5],[1,0.5]];portConstraint=eastwest;" vertex="1" parent="P-fnGor--EmOhXwZXgAq-15">
          <mxGeometry y="60" width="180" height="30" as="geometry" />
        </mxCell>
        <mxCell id="P-fnGor--EmOhXwZXgAq-20" value="" style="shape=partialRectangle;connectable=0;fillColor=none;top=0;left=0;bottom=0;right=0;editable=1;overflow=hidden;" vertex="1" parent="P-fnGor--EmOhXwZXgAq-19">
          <mxGeometry width="30" height="30" as="geometry" />
        </mxCell>
        <mxCell id="P-fnGor--EmOhXwZXgAq-21" value="行业名称" style="shape=partialRectangle;connectable=0;fillColor=none;top=0;left=0;bottom=0;right=0;align=left;spacingLeft=6;overflow=hidden;" vertex="1" parent="P-fnGor--EmOhXwZXgAq-19">
          <mxGeometry x="30" width="150" height="30" as="geometry" />
        </mxCell>
        <mxCell id="P-fnGor--EmOhXwZXgAq-22" value="" style="shape=partialRectangle;collapsible=0;dropTarget=0;pointerEvents=0;fillColor=none;top=0;left=0;bottom=0;right=0;points=[[0,0.5],[1,0.5]];portConstraint=eastwest;" vertex="1" parent="P-fnGor--EmOhXwZXgAq-15">
          <mxGeometry y="90" width="180" height="30" as="geometry" />
        </mxCell>
        <mxCell id="P-fnGor--EmOhXwZXgAq-23" value="" style="shape=partialRectangle;connectable=0;fillColor=none;top=0;left=0;bottom=0;right=0;editable=1;overflow=hidden;" vertex="1" parent="P-fnGor--EmOhXwZXgAq-22">
          <mxGeometry width="30" height="30" as="geometry" />
        </mxCell>
        <mxCell id="P-fnGor--EmOhXwZXgAq-24" value="报告名称" style="shape=partialRectangle;connectable=0;fillColor=none;top=0;left=0;bottom=0;right=0;align=left;spacingLeft=6;overflow=hidden;" vertex="1" parent="P-fnGor--EmOhXwZXgAq-22">
          <mxGeometry x="30" width="150" height="30" as="geometry" />
        </mxCell>
        <mxCell id="P-fnGor--EmOhXwZXgAq-25" value="" style="shape=partialRectangle;collapsible=0;dropTarget=0;pointerEvents=0;fillColor=none;top=0;left=0;bottom=0;right=0;points=[[0,0.5],[1,0.5]];portConstraint=eastwest;" vertex="1" parent="P-fnGor--EmOhXwZXgAq-15">
          <mxGeometry y="120" width="180" height="30" as="geometry" />
        </mxCell>
        <mxCell id="P-fnGor--EmOhXwZXgAq-26" value="" style="shape=partialRectangle;connectable=0;fillColor=none;top=0;left=0;bottom=0;right=0;editable=1;overflow=hidden;" vertex="1" parent="P-fnGor--EmOhXwZXgAq-25">
          <mxGeometry width="30" height="30" as="geometry" />
        </mxCell>
        <mxCell id="P-fnGor--EmOhXwZXgAq-27" value="评级" style="shape=partialRectangle;connectable=0;fillColor=none;top=0;left=0;bottom=0;right=0;align=left;spacingLeft=6;overflow=hidden;" vertex="1" parent="P-fnGor--EmOhXwZXgAq-25">
          <mxGeometry x="30" width="150" height="30" as="geometry" />
        </mxCell>
        <mxCell id="P-fnGor--EmOhXwZXgAq-28" value="" style="shape=partialRectangle;connectable=0;fillColor=none;top=0;left=0;bottom=0;right=0;editable=1;overflow=hidden;" vertex="1" parent="P-fnGor--EmOhXwZXgAq-38">
          <mxGeometry y="150" width="30" height="30" as="geometry" />
        </mxCell>
        <mxCell id="P-fnGor--EmOhXwZXgAq-29" value="机构名称" style="shape=partialRectangle;connectable=0;fillColor=none;top=0;left=0;bottom=0;right=0;align=left;spacingLeft=6;overflow=hidden;" vertex="1" parent="P-fnGor--EmOhXwZXgAq-38">
          <mxGeometry x="30" y="150" width="150" height="30" as="geometry" />
        </mxCell>
        <mxCell id="P-fnGor--EmOhXwZXgAq-30" value="" style="shape=partialRectangle;connectable=0;fillColor=none;top=0;left=0;bottom=0;right=0;editable=1;overflow=hidden;" vertex="1" parent="P-fnGor--EmOhXwZXgAq-38">
          <mxGeometry y="180" width="30" height="30" as="geometry" />
        </mxCell>
        <mxCell id="P-fnGor--EmOhXwZXgAq-31" value="发布时间" style="shape=partialRectangle;connectable=0;fillColor=none;top=0;left=0;bottom=0;right=0;align=left;spacingLeft=6;overflow=hidden;" vertex="1" parent="P-fnGor--EmOhXwZXgAq-38">
          <mxGeometry x="30" y="180" width="150" height="30" as="geometry" />
        </mxCell>
        <mxCell id="P-fnGor--EmOhXwZXgAq-32" value="" style="shape=partialRectangle;connectable=0;fillColor=none;top=0;left=0;bottom=0;right=0;editable=1;overflow=hidden;" vertex="1" parent="P-fnGor--EmOhXwZXgAq-38">
          <mxGeometry y="210" width="30" height="30" as="geometry" />
        </mxCell>
        <mxCell id="P-fnGor--EmOhXwZXgAq-33" value="采集时间" style="shape=partialRectangle;connectable=0;fillColor=none;top=0;left=0;bottom=0;right=0;align=left;spacingLeft=6;overflow=hidden;" vertex="1" parent="P-fnGor--EmOhXwZXgAq-38">
          <mxGeometry x="30" y="210" width="150" height="30" as="geometry" />
        </mxCell>
        <mxCell id="P-fnGor--EmOhXwZXgAq-34" value="" style="shape=partialRectangle;connectable=0;fillColor=none;top=0;left=0;bottom=0;right=0;editable=1;overflow=hidden;" vertex="1" parent="P-fnGor--EmOhXwZXgAq-38">
          <mxGeometry y="240" width="30" height="30" as="geometry" />
        </mxCell>
        <mxCell id="P-fnGor--EmOhXwZXgAq-35" value="原文存储路径" style="shape=partialRectangle;connectable=0;fillColor=none;top=0;left=0;bottom=0;right=0;align=left;spacingLeft=6;overflow=hidden;" vertex="1" parent="P-fnGor--EmOhXwZXgAq-38">
          <mxGeometry x="30" y="240" width="150" height="30" as="geometry" />
        </mxCell>
        <mxCell id="P-fnGor--EmOhXwZXgAq-36" value="" style="shape=partialRectangle;connectable=0;fillColor=none;top=0;left=0;bottom=0;right=0;editable=1;overflow=hidden;" vertex="1" parent="P-fnGor--EmOhXwZXgAq-38">
          <mxGeometry y="270" width="30" height="30" as="geometry" />
        </mxCell>
        <mxCell id="P-fnGor--EmOhXwZXgAq-37" value="原文地址" style="shape=partialRectangle;connectable=0;fillColor=none;top=0;left=0;bottom=0;right=0;align=left;spacingLeft=6;overflow=hidden;" vertex="1" parent="P-fnGor--EmOhXwZXgAq-38">
          <mxGeometry x="30" y="270" width="150" height="30" as="geometry" />
        </mxCell>
        <mxCell id="P-fnGor--EmOhXwZXgAq-39" value="" style="group" vertex="1" connectable="0" parent="1">
          <mxGeometry x="340" y="130" width="180" height="310" as="geometry" />
        </mxCell>
        <mxCell id="P-fnGor--EmOhXwZXgAq-40" value="行业研报原数据" style="shape=table;startSize=30;container=1;collapsible=1;childLayout=tableLayout;fixedRows=1;rowLines=0;fontStyle=1;align=center;resizeLast=1;" vertex="1" parent="P-fnGor--EmOhXwZXgAq-39">
          <mxGeometry width="180" height="310" as="geometry" />
        </mxCell>
        <mxCell id="P-fnGor--EmOhXwZXgAq-41" value="" style="shape=partialRectangle;collapsible=0;dropTarget=0;pointerEvents=0;fillColor=none;top=0;left=0;bottom=1;right=0;points=[[0,0.5],[1,0.5]];portConstraint=eastwest;" vertex="1" parent="P-fnGor--EmOhXwZXgAq-40">
          <mxGeometry y="30" width="180" height="30" as="geometry" />
        </mxCell>
        <mxCell id="P-fnGor--EmOhXwZXgAq-42" value="PK" style="shape=partialRectangle;connectable=0;fillColor=none;top=0;left=0;bottom=0;right=0;fontStyle=1;overflow=hidden;" vertex="1" parent="P-fnGor--EmOhXwZXgAq-41">
          <mxGeometry width="30" height="30" as="geometry" />
        </mxCell>
        <mxCell id="P-fnGor--EmOhXwZXgAq-43" value="行业研报ID" style="shape=partialRectangle;connectable=0;fillColor=none;top=0;left=0;bottom=0;right=0;align=left;spacingLeft=6;fontStyle=5;overflow=hidden;" vertex="1" parent="P-fnGor--EmOhXwZXgAq-41">
          <mxGeometry x="30" width="150" height="30" as="geometry" />
        </mxCell>
        <mxCell id="P-fnGor--EmOhXwZXgAq-44" value="" style="shape=partialRectangle;collapsible=0;dropTarget=0;pointerEvents=0;fillColor=none;top=0;left=0;bottom=0;right=0;points=[[0,0.5],[1,0.5]];portConstraint=eastwest;" vertex="1" parent="P-fnGor--EmOhXwZXgAq-40">
          <mxGeometry y="60" width="180" height="30" as="geometry" />
        </mxCell>
        <mxCell id="P-fnGor--EmOhXwZXgAq-45" value="" style="shape=partialRectangle;connectable=0;fillColor=none;top=0;left=0;bottom=0;right=0;editable=1;overflow=hidden;" vertex="1" parent="P-fnGor--EmOhXwZXgAq-44">
          <mxGeometry width="30" height="30" as="geometry" />
        </mxCell>
        <mxCell id="P-fnGor--EmOhXwZXgAq-46" value="行业名称" style="shape=partialRectangle;connectable=0;fillColor=none;top=0;left=0;bottom=0;right=0;align=left;spacingLeft=6;overflow=hidden;" vertex="1" parent="P-fnGor--EmOhXwZXgAq-44">
          <mxGeometry x="30" width="150" height="30" as="geometry" />
        </mxCell>
        <mxCell id="P-fnGor--EmOhXwZXgAq-47" value="" style="shape=partialRectangle;collapsible=0;dropTarget=0;pointerEvents=0;fillColor=none;top=0;left=0;bottom=0;right=0;points=[[0,0.5],[1,0.5]];portConstraint=eastwest;" vertex="1" parent="P-fnGor--EmOhXwZXgAq-40">
          <mxGeometry y="90" width="180" height="30" as="geometry" />
        </mxCell>
        <mxCell id="P-fnGor--EmOhXwZXgAq-48" value="" style="shape=partialRectangle;connectable=0;fillColor=none;top=0;left=0;bottom=0;right=0;editable=1;overflow=hidden;" vertex="1" parent="P-fnGor--EmOhXwZXgAq-47">
          <mxGeometry width="30" height="30" as="geometry" />
        </mxCell>
        <mxCell id="P-fnGor--EmOhXwZXgAq-49" value="报告名称" style="shape=partialRectangle;connectable=0;fillColor=none;top=0;left=0;bottom=0;right=0;align=left;spacingLeft=6;overflow=hidden;" vertex="1" parent="P-fnGor--EmOhXwZXgAq-47">
          <mxGeometry x="30" width="150" height="30" as="geometry" />
        </mxCell>
        <mxCell id="P-fnGor--EmOhXwZXgAq-50" value="" style="shape=partialRectangle;collapsible=0;dropTarget=0;pointerEvents=0;fillColor=none;top=0;left=0;bottom=0;right=0;points=[[0,0.5],[1,0.5]];portConstraint=eastwest;" vertex="1" parent="P-fnGor--EmOhXwZXgAq-40">
          <mxGeometry y="120" width="180" height="30" as="geometry" />
        </mxCell>
        <mxCell id="P-fnGor--EmOhXwZXgAq-51" value="" style="shape=partialRectangle;connectable=0;fillColor=none;top=0;left=0;bottom=0;right=0;editable=1;overflow=hidden;" vertex="1" parent="P-fnGor--EmOhXwZXgAq-50">
          <mxGeometry width="30" height="30" as="geometry" />
        </mxCell>
        <mxCell id="P-fnGor--EmOhXwZXgAq-52" value="评级" style="shape=partialRectangle;connectable=0;fillColor=none;top=0;left=0;bottom=0;right=0;align=left;spacingLeft=6;overflow=hidden;" vertex="1" parent="P-fnGor--EmOhXwZXgAq-50">
          <mxGeometry x="30" width="150" height="30" as="geometry" />
        </mxCell>
        <mxCell id="P-fnGor--EmOhXwZXgAq-53" value="" style="shape=partialRectangle;connectable=0;fillColor=none;top=0;left=0;bottom=0;right=0;editable=1;overflow=hidden;" vertex="1" parent="P-fnGor--EmOhXwZXgAq-39">
          <mxGeometry y="150" width="30" height="30" as="geometry" />
        </mxCell>
        <mxCell id="P-fnGor--EmOhXwZXgAq-54" value="机构名称" style="shape=partialRectangle;connectable=0;fillColor=none;top=0;left=0;bottom=0;right=0;align=left;spacingLeft=6;overflow=hidden;" vertex="1" parent="P-fnGor--EmOhXwZXgAq-39">
          <mxGeometry x="30" y="150" width="150" height="30" as="geometry" />
        </mxCell>
        <mxCell id="P-fnGor--EmOhXwZXgAq-55" value="" style="shape=partialRectangle;connectable=0;fillColor=none;top=0;left=0;bottom=0;right=0;editable=1;overflow=hidden;" vertex="1" parent="P-fnGor--EmOhXwZXgAq-39">
          <mxGeometry y="180" width="30" height="30" as="geometry" />
        </mxCell>
        <mxCell id="P-fnGor--EmOhXwZXgAq-56" value="发布时间" style="shape=partialRectangle;connectable=0;fillColor=none;top=0;left=0;bottom=0;right=0;align=left;spacingLeft=6;overflow=hidden;" vertex="1" parent="P-fnGor--EmOhXwZXgAq-39">
          <mxGeometry x="30" y="180" width="150" height="30" as="geometry" />
        </mxCell>
        <mxCell id="P-fnGor--EmOhXwZXgAq-57" value="" style="shape=partialRectangle;connectable=0;fillColor=none;top=0;left=0;bottom=0;right=0;editable=1;overflow=hidden;" vertex="1" parent="P-fnGor--EmOhXwZXgAq-39">
          <mxGeometry y="210" width="30" height="30" as="geometry" />
        </mxCell>
        <mxCell id="P-fnGor--EmOhXwZXgAq-58" value="采集时间" style="shape=partialRectangle;connectable=0;fillColor=none;top=0;left=0;bottom=0;right=0;align=left;spacingLeft=6;overflow=hidden;" vertex="1" parent="P-fnGor--EmOhXwZXgAq-39">
          <mxGeometry x="30" y="210" width="150" height="30" as="geometry" />
        </mxCell>
        <mxCell id="P-fnGor--EmOhXwZXgAq-59" value="" style="shape=partialRectangle;connectable=0;fillColor=none;top=0;left=0;bottom=0;right=0;editable=1;overflow=hidden;" vertex="1" parent="P-fnGor--EmOhXwZXgAq-39">
          <mxGeometry y="240" width="30" height="30" as="geometry" />
        </mxCell>
        <mxCell id="P-fnGor--EmOhXwZXgAq-60" value="原文存储路径" style="shape=partialRectangle;connectable=0;fillColor=none;top=0;left=0;bottom=0;right=0;align=left;spacingLeft=6;overflow=hidden;" vertex="1" parent="P-fnGor--EmOhXwZXgAq-39">
          <mxGeometry x="30" y="240" width="150" height="30" as="geometry" />
        </mxCell>
        <mxCell id="P-fnGor--EmOhXwZXgAq-61" value="" style="shape=partialRectangle;connectable=0;fillColor=none;top=0;left=0;bottom=0;right=0;editable=1;overflow=hidden;" vertex="1" parent="P-fnGor--EmOhXwZXgAq-39">
          <mxGeometry y="270" width="30" height="30" as="geometry" />
        </mxCell>
        <mxCell id="P-fnGor--EmOhXwZXgAq-62" value="原文地址" style="shape=partialRectangle;connectable=0;fillColor=none;top=0;left=0;bottom=0;right=0;align=left;spacingLeft=6;overflow=hidden;" vertex="1" parent="P-fnGor--EmOhXwZXgAq-39">
          <mxGeometry x="30" y="270" width="150" height="30" as="geometry" />
        </mxCell>
      </root>
    </mxGraphModel>
  </diagram>
</mxfile>
